{"title":"Pazhassi Raja (2013) 1CD Hindi Dubbed WebRip Xvid MP3 Team DDH~R","uid":9041843,"size":725814178,"categoryP":"video","categoryS":"movies","magnet":"?xt=urn:btih:9b11a8f9595206e3616934f2902dd03a5db2fb9f&amp;dn=Pazhassi+Raja+%282013%29+1CD+Hindi+Dubbed+WebRip+Xvid+MP3+Team+DDH%7ER&amp;tr=udp%3A%2F%2Ftracker.openbittorrent.com%3A80&amp;tr=udp%3A%2F%2Fopen.demonii.com%3A1337&amp;tr=udp%3A%2F%2Ftracker.coppersurfer.tk%3A6969&amp;tr=udp%3A%2F%2Fexodus.desync.com%3A6969","seeders":1,"leechers":1,"uploader":"teamddhrg","files":15,"time":1381650179,"description":"[CENTER][IMG]http://s20.postimg.org/3n6wha97x/448_X212.jpg[/IMG]\n\n\n[URL=http://www.tinyuploads.com/gallery/view/Ig5cBk][IMG]http://i.tinyuploads.com/Ig5cBk.jpg[/IMG][/URL]\n\n\n[CODE]\nGeneral\nFormat                                   : AVI\nFormat/Info                              : Audio Video Interleave\nFile size                                : 690 MiB\nDuration                                 : 3h 12mn\nOverall bit rate                         : 500 Kbps\n\nVideo\nID                                       : 0\nFormat                                   : MPEG-4 Visual\nFormat profile                           : Advanced Simple@L5\nFormat settings, BVOP                    : 2\nFormat settings, QPel                    : No\nFormat settings, GMC                     : No warppoints\nFormat settings, Matrix                  : Default (H.263)\nCodec ID                                 : XVID\nCodec ID/Hint                            : XviD\nDuration                                 : 3h 12mn\nBit rate                                 : 366 Kbps\nWidth                                    : 640 pixels\nHeight                                   : 272 pixels\nDisplay aspect ratio                     : 2.35:1\nFrame rate                               : 25.000 fps\nColor space                              : YUV\nChroma subsampling                       : 4:2:0\nBit depth                                : 8 bits\nScan type                                : Progressive\nCompression mode                         : Lossy\nBits/(Pixel*Frame)                       : 0.084\nStream size                              : 505 MiB (73%)\nWriting library                          : XviD 1.2.1 (UTC 2008-12-04)\n\nAudio\nID                                       : 1\nFormat                                   : MPEG Audio\nFormat version                           : Version 1\nFormat profile                           : Layer 3\nMode                                     : Joint stereo\nMode extension                           : MS Stereo\nCodec ID                                 : 55\nCodec ID/Hint                            : MP3\nDuration                                 : 3h 12mn\nBit rate mode                            : Constant\nBit rate                                 : 128 Kbps\nChannel(s)                               : 2 channels\nSampling rate                            : 44.1 KHz\nCompression mode                         : Lossy\nStream size                              : 177 MiB (26%)\nAlignment                                : Aligned on interleaves\nInterleave, duration                     : 160 ms (4.00 video frames)\nInterleave, preload duration             : 208 ms\n\n[/CODE]\n\n\n[img]http://s20.postimg.org/omdq68759/1081063_286220624854302_579009215_n.jpg[/img]\n\n\n[URL=http://www.tinyuploads.com/gallery/view/vGt2VA][IMG]http://i.tinyuploads.com/vGt2VA.png[/IMG][/URL]\n[URL=http://www.tinyuploads.com/gallery/view/GYUX9i][IMG]http://i.tinyuploads.com/GYUX9i.png[/IMG][/URL]\n[URL=http://www.tinyuploads.com/gallery/view/oFxh5t][IMG]http://i.tinyuploads.com/oFxh5t.png[/IMG][/URL]\n[URL=http://www.tinyuploads.com/gallery/view/2vhb33][IMG]http://i.tinyuploads.com/2vhb33.png[/IMG][/URL]\n[URL=http://www.tinyuploads.com/gallery/view/eai1qT][IMG]http://i.tinyuploads.com/eai1qT.png[/IMG][/URL]\n[URL=http://www.tinyuploads.com/gallery/view/eesX8W][IMG]http://i.tinyuploads.com/eesX8W.png[/IMG][/URL]\n[URL=http://www.tinyuploads.com/gallery/view/udiY2c][IMG]http://i.tinyuploads.com/udiY2c.png[/IMG][/URL]\n[URL=http://www.tinyuploads.com/gallery/view/udiY2c][IMG]http://i.tinyuploads.com/udiY2c.png[/IMG][/URL]\n[URL=http://www.tinyuploads.com/gallery/view/cxOaN5][IMG]http://i.tinyuploads.com/cxOaN5.png[/IMG][/URL]\n\n\n[B][SIZE=5][COLOR=&quot;#B22222&quot;]Give Proper Credits To Me &amp; Team DDH~RG Wherever You Share[/COLOR][/SIZE][/B]\n[/CENTER]","torrent":{"xt":"urn:btih:9b11a8f9595206e3616934f2902dd03a5db2fb9f","amp;dn":"Pazhassi+Raja+%282013%29+1CD+Hindi+Dubbed+WebRip+Xvid+MP3+Team+DDH%7ER","amp;tr":["udp%3A%2F%2Ftracker.openbittorrent.com%3A80","udp%3A%2F%2Fopen.demonii.com%3A1337","udp%3A%2F%2Ftracker.coppersurfer.tk%3A6969","udp%3A%2F%2Fexodus.desync.com%3A6969"],"infoHash":"9b11a8f9595206e3616934f2902dd03a5db2fb9f","infoHashBuffer":{"type":"Buffer","data":[155,17,168,249,89,82,6,227,97,105,52,242,144,45,208,58,93,178,251,159]},"announce":[],"urlList":[]}}